<?xml version="1.0" encoding="UTF-8" standalone="no"?>
<!-- Created with Inkscape (http://www.inkscape.org/) -->

<svg
   xmlns:dc="http://purl.org/dc/elements/1.1/"
   xmlns:cc="http://creativecommons.org/ns#"
   xmlns:rdf="http://www.w3.org/1999/02/22-rdf-syntax-ns#"
   xmlns:svg="http://www.w3.org/2000/svg"
   xmlns="http://www.w3.org/2000/svg"
   xmlns:sodipodi="http://sodipodi.sourceforge.net/DTD/sodipodi-0.dtd"
   xmlns:inkscape="http://www.inkscape.org/namespaces/inkscape"
   width="150"
   height="100"
   id="svg2"
   version="1.1"
   inkscape:version="0.48.4 r9939"
   sodipodi:docname="logo.svg">
  <defs
     id="defs4" />
  <sodipodi:namedview
     id="base"
     pagecolor="#ffffff"
     bordercolor="#666666"
     borderopacity="1.0"
     inkscape:pageopacity="0.0"
     inkscape:pageshadow="2"
     inkscape:zoom="1.4"
     inkscape:cx="339.79866"
     inkscape:cy="-6.6357307"
     inkscape:document-units="px"
     inkscape:current-layer="layer1"
     showgrid="false"
     inkscape:window-width="1366"
     inkscape:window-height="716"
     inkscape:window-x="0"
     inkscape:window-y="25"
     inkscape:window-maximized="1" />
  <metadata
     id="metadata7">
    <rdf:RDF>
      <cc:Work
         rdf:about="">
        <dc:format>image/svg+xml</dc:format>
        <dc:type
           rdf:resource="http://purl.org/dc/dcmitype/StillImage" />
        <dc:title></dc:title>
      </cc:Work>
    </rdf:RDF>
  </metadata>
  <g
     inkscape:label="Layer 1"
     inkscape:groupmode="layer"
     id="layer1"
     transform="translate(0,-952.36218)">
    <text
       xml:space="preserve"
       style="font-size:40px;font-style:normal;font-weight:normal;line-height:125%;letter-spacing:0px;word-spacing:0px;fill:#000000;fill-opacity:1;stroke:none;font-family:Sans"
       x="82.071709"
       y="1036.9105"
       id="text2995"
       sodipodi:linespacing="125%"
       inkscape:export-filename="/media/extra/dev/social1/tpl/img/logo_s1.png"
       inkscape:export-xdpi="187.38"
       inkscape:export-ydpi="187.38"><tspan
         sodipodi:role="line"
         id="tspan2997"
         x="82.071709"
         y="1036.9105"
         style="font-size:144px;font-style:normal;font-variant:normal;font-weight:normal;font-stretch:normal;fill:#008033;font-family:Pali;-inkscape-font-specification:Pali">s</tspan></text>
    <g
       id="g3019"
       transform="matrix(0.32843137,0,0,0.32843137,9.2710338,965.74549)"
       inkscape:export-filename="/media/extra/dev/social1/tpl/img/logo_s1.png"
       inkscape:export-xdpi="187.38"
       inkscape:export-ydpi="187.38">
      <g
         id="g3015">
        <path
           sodipodi:type="arc"
           style="opacity:0.85;fill:#008080;fill-opacity:1;stroke:none"
           id="path2985"
           sodipodi:cx="227.14285"
           sodipodi:cy="282.36218"
           sodipodi:rx="144.28572"
           sodipodi:ry="192.85715"
           d="M 368.7609,319.276 C 353.50844,423.81878 277.73933,492.04056 199.52585,471.65362 121.31236,451.26668 70.272358,349.99114 85.524809,245.44836 100.77726,140.90559 176.54637,72.683803 254.75986,93.070743 330.19428,112.7333 380.85781,207.97961 369.97462,309.67193"
           sodipodi:start="0.1925934"
           sodipodi:end="6.425269"
           sodipodi:open="true"
           transform="matrix(0.34648308,0,0,0.25921061,-5.8691578,-4.5152224)" />
        <path
           transform="matrix(0.34648308,0,0,0.25921061,98.130843,-4.5152224)"
           sodipodi:open="true"
           sodipodi:end="6.425269"
           sodipodi:start="0.1925934"
           d="M 368.7609,319.276 C 353.50844,423.81878 277.73933,492.04056 199.52585,471.65362 121.31236,451.26668 70.272358,349.99114 85.524809,245.44836 100.77726,140.90559 176.54637,72.683803 254.75986,93.070743 330.19428,112.7333 380.85781,207.97961 369.97462,309.67193"
           sodipodi:ry="192.85715"
           sodipodi:rx="144.28572"
           sodipodi:cy="282.36218"
           sodipodi:cx="227.14285"
           id="path3005"
           style="opacity:0.85;fill:#008080;fill-opacity:1;stroke:none"
           sodipodi:type="arc" />
      </g>
      <g
         transform="translate(0,104)"
         id="g3011">
        <path
           transform="matrix(0.34648308,0,0,0.25921061,-5.8691578,-4.5152224)"
           sodipodi:open="true"
           sodipodi:end="6.425269"
           sodipodi:start="0.1925934"
           d="M 368.7609,319.276 C 353.50844,423.81878 277.73933,492.04056 199.52585,471.65362 121.31236,451.26668 70.272358,349.99114 85.524809,245.44836 100.77726,140.90559 176.54637,72.683803 254.75986,93.070743 330.19428,112.7333 380.85781,207.97961 369.97462,309.67193"
           sodipodi:ry="192.85715"
           sodipodi:rx="144.28572"
           sodipodi:cy="282.36218"
           sodipodi:cx="227.14285"
           id="path3007"
           style="opacity:0.85;fill:#008080;fill-opacity:1;stroke:none"
           sodipodi:type="arc" />
        <path
           sodipodi:type="arc"
           style="opacity:0.85;fill:#008080;fill-opacity:1;stroke:none"
           id="path3009"
           sodipodi:cx="227.14285"
           sodipodi:cy="282.36218"
           sodipodi:rx="144.28572"
           sodipodi:ry="192.85715"
           d="M 368.7609,319.276 C 353.50844,423.81878 277.73933,492.04056 199.52585,471.65362 121.31236,451.26668 70.272358,349.99114 85.524809,245.44836 100.77726,140.90559 176.54637,72.683803 254.75986,93.070743 330.19428,112.7333 380.85781,207.97961 369.97462,309.67193"
           sodipodi:start="0.1925934"
           sodipodi:end="6.425269"
           sodipodi:open="true"
           transform="matrix(0.34648308,0,0,0.25921061,98.130843,-4.5152224)" />
      </g>
    </g>
  </g>
</svg>
